# xmcd
#
# Track frame offsets: 
#        150
#        17704
#        35589
#        52104
#        69413
#        86173
#        103274
#        116816
#        133033
#        150236
#        170679
#        191828
#        208140
#        228958
#        240480
#        257108
#        274302
#        287112
#        300293
#        312559
#
# Disc length: 4298 seconds
#
# Revision: 0
# Processed by: cddbd v1.5.2PL0 Copyright (c) Steve Scherf et al.
# Submitted via: ExactAudioCopyFreeDBPlugin 1.0
#
DISCID=2910c814
DTITLE=Various Artist - Country Music Festival
DYEAR=2013
DGENRE=Country
TTITLE0=Alan Jackson - Good Time
TTITLE1=Enderlin Chicks - All Chinds of Beautiful
TTITLE2=Sheryl Crow - Easy
TTITLE3=Mark Chesnutt - Fallin never felt so good
TTITLE4=Jeff Turner - Brother Highway
TTITLE5=Locash Cowboys - Keep in mind
TTITLE6=Texas Tornados - Que Paso
TTITLE7=Bellamy Brothers - I need more of you
TTITLE8=Mustang Sally - Jiggle it a little
TTITLE9=John Brack Whith The Cumberland Boys - Lean on me
TTITLE10=Marty Stuart - Badlands
TTITLE11=Tracy Byrd - I'm from the Country
TTITLE12=Buddy Dee and the Gostriders - Buddy dee is backin Town
TTITLE13=Crystal Gayle - Never ending song of Love
TTITLE14=Rick Trevino - Olivia
TTITLE15=Patty Loveless - Keep your Distance
TTITLE16=Del Mccourt - High on a Mountain
TTITLE17=The SandaySkifflers - Woman's love
TTITLE18=Bobby Bare - 500 Miles away from home
TTITLE19=Jeff Turner - Country Music festival jubilee song
EXTD=
EXTT0=
EXTT1=
EXTT2=
EXTT3=
EXTT4=
EXTT5=
EXTT6=
EXTT7=
EXTT8=
EXTT9=
EXTT10=
EXTT11=
EXTT12=
EXTT13=
EXTT14=
EXTT15=
EXTT16=
EXTT17=
EXTT18=
EXTT19=
PLAYORDER=
